<svg xmlns="http://www.w3.org/2000/svg" xmlns:svg="http://www.w3.org/2000/svg" xmlns:xlink="http://www.w3.org/1999/xlink" id="svg1" width="210mm" height="297mm" version="1.1"><metadata id="metadata4634"/><defs id="defs3"><linearGradient id="linearGradient665"><stop style="stop-color:#fff;stop-opacity:.285714" id="stop666" offset="0"/><stop style="stop-color:#daecf8;stop-opacity:1" id="stop667" offset="1"/></linearGradient><linearGradient id="linearGradient624"><stop style="stop-color:#b9e5ff;stop-opacity:.419643" id="stop625" offset="0"/><stop style="stop-color:#fff;stop-opacity:1" id="stop626" offset="1"/></linearGradient><linearGradient id="linearGradient619"><stop style="stop-color:#66b8ff;stop-opacity:1" id="stop620" offset="0"/><stop style="stop-color:#00507a;stop-opacity:1" id="stop621" offset="1"/></linearGradient><linearGradient id="linearGradient604"><stop style="stop-color:#838383;stop-opacity:1" id="stop605" offset="0"/><stop style="stop-color:#2c2c2c;stop-opacity:1" id="stop606" offset="1"/></linearGradient><linearGradient id="linearGradient598"><stop style="stop-color:#e1dedd;stop-opacity:.866071" id="stop599" offset="0"/><stop style="stop-color:#2c2c2c;stop-opacity:1" id="stop600" offset="1"/></linearGradient><linearGradient id="linearGradient593"><stop style="stop-color:#fff9db;stop-opacity:.732143" id="stop594" offset="0"/><stop style="stop-color:#2c2c2c;stop-opacity:1" id="stop595" offset="1"/></linearGradient><linearGradient id="linearGradient586"><stop style="stop-color:#6e6969;stop-opacity:1" id="stop587" offset="0"/><stop style="stop-color:#2c2c2c;stop-opacity:1" id="stop588" offset="1"/></linearGradient><linearGradient id="linearGradient578"><stop style="stop-color:#fff2bc;stop-opacity:1" id="stop579" offset="0"/><stop style="stop-color:#83560b;stop-opacity:1" id="stop580" offset="1"/></linearGradient><linearGradient id="linearGradient581" x1="596.057" x2="656.456" y1="231.006" y2="279.761" gradientTransform="matrix(0.80329146,0,0,1.2448782,-845.6997,-1035.2043)" gradientUnits="userSpaceOnUse" xlink:href="#linearGradient578"/><radialGradient id="radialGradient582" cx=".5" cy=".5" r=".5" fx=".5" fy=".5" xlink:href="#linearGradient578"/><linearGradient id="linearGradient590" x1="779.717" x2="908.448" y1="160.625" y2="264.661" gradientTransform="matrix(0.74212107,0,0,1.347489,-845.6997,-1035.2043)" gradientUnits="userSpaceOnUse" xlink:href="#linearGradient593"/><linearGradient id="linearGradient592" x1=".196" x2=".32" y1=".492" y2=".539" xlink:href="#linearGradient586"/><linearGradient id="linearGradient597" x1=".493" x2=".667" y1=".258" y2=".383" xlink:href="#linearGradient598"/><linearGradient id="linearGradient603" x1=".831" x2=".438" y1=".375" y2=".109" xlink:href="#linearGradient604"/><linearGradient id="linearGradient618" x1=".411" x2=".977" y1=".375" y2=".93" xlink:href="#linearGradient665"/><linearGradient id="linearGradient623" x1="273.636" x2="411.624" y1="74.198" y2="425.916" gradientTransform="matrix(0.71655573,0,0,1.3955649,-845.6997,-1035.2043)" gradientUnits="userSpaceOnUse" xlink:href="#linearGradient624"/><linearGradient id="linearGradient664" x1="27.984" x2="332.467" y1="-79.005" y2="605.532" gradientTransform="matrix(0.854246,0,0,0.873855,-783.1592,-871.39933)" gradientUnits="userSpaceOnUse" xlink:href="#linearGradient619"/><linearGradient id="linearGradient1495" x1="749.249" x2="380.102" y1="207.827" y2="686.152" gradientTransform="matrix(2.1603264,0,0,3.0682112,-2741.1671,-1902.4202)" gradientUnits="userSpaceOnUse" xlink:href="#linearGradient1492"/><linearGradient id="linearGradient1492"><stop id="stop1493" offset="0" style="stop-color:#cbcbcb;stop-opacity:1"/><stop id="stop1496" offset=".349" style="stop-color:#f0f0f0;stop-opacity:1"/><stop id="stop1494" offset="1" style="stop-color:#e2e2e2;stop-opacity:1"/></linearGradient><linearGradient id="linearGradient1497" x1="741.639" x2="622.333" y1="169.444" y2="287.738" gradientTransform="matrix(2.1771973,0,0,2.3633255,-2753.2223,-1810.6464)" gradientUnits="userSpaceOnUse" xlink:href="#linearGradient1492"/><linearGradient id="linearGradient1499" x1="687.964" x2="673.641" y1="236.128" y2="255.359" gradientTransform="matrix(2.236264,0,0,2.9640229,-2741.1673,-1902.4202)" gradientUnits="userSpaceOnUse" xlink:href="#linearGradient1501"/><linearGradient id="linearGradient1501"><stop id="stop1502" offset="0" style="stop-color:#fff;stop-opacity:1"/><stop id="stop1504" offset="1" style="stop-color:#fff;stop-opacity:0"/></linearGradient></defs><g id="g4707"><path id="path930" d="m -2067.7963,-1503.3698 0,363.0033 0,363.00333 0,363.00324 0,363.003301 255.5196,0 255.5197,0 255.5196,0 255.5196,0 0,-363.003301 0,-363.00324 0,-363.00333 -255.5196,-363.0033 -255.5196,0 -255.5197,0 -255.5196,0 z" style="fill:#fff;fill-rule:evenodd;stroke-width:.42649043;stroke-opacity:.3647799"/><g id="g1552" transform="matrix(2.3181372,0,0,2.9401702,-2478.2979,-2677.348)" style="fill:#000;fill-opacity:.02147239"><path id="path1505" d="m 173.35959,408.8126 0,122.261 0,122.261 0,122.261 0,122.261 108.76228,0 108.7623,0 108.76229,0 108.76228,0 0,-122.261 0,-122.261 0,-122.261 -108.76228,-122.261 -108.76229,0 -108.7623,0 -108.76228,0 z" style="fill:#000;fill-opacity:.02147239;fill-rule:evenodd;stroke-width:.95407498pt"/><path id="path1538" d="m 170.125,407.1875 c 0,164.63542 0,329.27083 0,493.90625 147.17708,0 294.35417,0 441.53125,0 0,-123.76042 0,-247.52083 0,-371.28125 -36.84707,-41.42272 -73.68021,-82.85915 -110.5625,-124.25 -110.32292,0 -220.64583,0 -330.96875,0 0,0.33333 0,1.41667 0,1.625 z" style="fill:#000;fill-opacity:.02147239;fill-rule:evenodd;stroke-width:.95407498pt"/><path id="path1543" d="m 166.875,403.9375 c 0,166.80208 0,333.60417 0,500.40625 149.34375,0 298.6875,0 448.03125,0 0,-125.26042 0,-250.52083 0,-375.78125 -37.45108,-42.08952 -74.88871,-84.19233 -112.375,-126.25 -111.88542,0 -223.77083,0 -335.65625,0 0,0.33333 0,1.41667 0,1.625 z" style="fill:#000;fill-opacity:.02147239;fill-rule:evenodd;stroke-width:.95407498pt"/></g><path id="rect900" d="m -2067.3765,-1501.5698 0,363.0033 0,363.00327 0,363.0033 0,363.003241 255.5195,0 255.5197,0 255.5196,0 255.5196,0 0,-363.003241 0,-363.0033 2.0312,-446.43777 -257.5508,-279.5688 -255.5196,0 -255.5197,0 z" style="fill:url(#linearGradient1495);fill-opacity:1;fill-rule:evenodd;stroke:#000;stroke-width:3.70092416;stroke-opacity:.3647799"/><path id="path906" d="m -1043.8725,-1222.3608 c -77.648,-22.7715 -178.2623,-19.5426 -254.2699,-6.5634 13.1236,-83.4183 14.7641,-187.962 -3.2809,-273.0053 l 257.5508,279.5687 z" style="fill:url(#linearGradient1497);fill-opacity:1;fill-rule:evenodd;stroke-width:.95407498pt"/><path id="path1500" d="m -2059.8784,-1389.6849 -4.6033,1330.863641 1003.5202,0 0.5754,-328.985931 c -22.4411,11.18999 -249.1538,-405.07789 -534.5586,-387.17391 -285.664,17.92025 -211.752,-560.9919 -464.9337,-614.7038 z" style="fill:url(#linearGradient1499);fill-opacity:1;fill-rule:evenodd;stroke-width:1.00000003pt"/><g id="g4698" transform="translate(-1193.5962,212.13203)"><ellipse style="font-size:12px;fill:#060000;fill-opacity:1;fill-rule:evenodd;stroke:#000;stroke-width:.70237595pt" id="path686" cx="-821.616" cy="-549.641" rx="95.98" ry="56.154" transform="matrix(0.7651989,0.64379395,-0.73696278,0.67593333,0,0)"/><ellipse style="font-size:12px;fill:url(#linearGradient664);fill-opacity:1;fill-rule:evenodd;stroke:#000;stroke-width:13.26275349;stroke-dasharray:none;stroke-opacity:1" id="path653" cx="-491.648" cy="-646.502" rx="316.071" ry="323.326"/><path style="font-size:12px;fill:url(#linearGradient623);fill-opacity:.75;fill-rule:evenodd;stroke:#f6f7f7;stroke-width:.97798303pt;stroke-opacity:.39285697" id="path622" d="m -531.6735,-402.09529 c 0,0 -86.24,-136.49165 -19.3034,-274.3994 53.1984,-110.85711 69.7093,-212.92485 26.44,-285.13983 -76.8455,9.57898 -143.7415,48.85179 -176.8863,82.38873 -50.2058,48.92692 -74.2291,100.22053 -85.1072,136.07698 14.5042,176.80937 256.0655,344.78281 254.8569,341.07352 z"/><path style="font-size:12px;fill:url(#linearGradient581);fill-rule:evenodd;stroke:#323232;stroke-width:5.63506985" id="hrot" d="m -509.6089,-395.32963 c -2.2904,-2.13985 112.7211,-172.66728 253.3096,-195.82268 0.4321,-183.81859 84.9509,-251.43702 90.3008,-262.94587 -11.2961,-61.06669 -44.4626,-84.13105 -74.3976,-88.98934 -50.7373,-6.46624 -41.2145,16.29718 -47.4484,22.35809 -34.3326,77.53156 -106.2349,186.98119 -116.3837,206.55202 -28.5558,39.56956 -89.0282,234.86184 -113.2161,318.46024 l 7.8354,0.38754 z"/><ellipse style="font-size:12px;fill:#665123;fill-rule:evenodd;stroke-width:1.25097001" id="path583" cx="-692.635" cy="-346.324" rx="8.691" ry="24.934" transform="matrix(0.8311385,0.55606546,-0.51485829,0.8572753,0,0)"/><path style="font-size:12px;fill:#665123;fill-rule:evenodd;stroke:#665123;stroke-width:1.73912001" id="path585" d="m -407.7805,-661.96803 -2.2523,-1.69167 c -2.5906,-1.94576 -89.4549,226.06339 -102.8595,266.91313 13.3214,-43.07345 91.7047,-247.25098 105.1118,-265.22146 z"/><path style="font-size:12px;fill:url(#linearGradient590);fill-rule:evenodd;stroke-width:1.00000003pt" id="path589" d="m -359.0511,-585.11967 c 30.497,-23.97635 43.9382,-43.48925 74.1331,-49.43597 -5.2164,-74.96907 52.4045,-165.49775 99.2434,-250.14813 l -8.4347,-15.22022 c -19.3754,29.34504 -134.5208,240.19543 -164.9418,314.80432 z"/></g></g></svg>